<svg xmlns="http://www.w3.org/2000/svg" viewBox="0 0 346.9 71.6"><defs><style>.cls-1{fill:none}.cls-2{fill:#fff05a}</style></defs><g id="Layer_2" data-name="Layer 2"><g id="Layer_1-2" data-name="Layer 1"><path class="cls-1" d="M334.5 30.4c-.9-.3-4.9.3-6.7 1l-1.3 1.2a9.3 9.3 0 0 0-1.3 1.4 6.8 6.8 0 0 0-.6 1.8 7.6 7.6 0 0 0-.3 2 3.8 3.8 0 0 0 .2 1.5l.2.6v-.2a10.6 10.6 0 0 0 .9 2l1.5.5a7.8 7.8 0 0 0 2 .2 10.2 10.2 0 0 0 4.2-1 9.6 9.6 0 0 0 1.9-1.5 10.6 10.6 0 0 0 1.4-3.4 7.5 7.5 0 0 0 .3-1.9 8 8 0 0 0-1-3.6 6.9 6.9 0 0 0-1.4-.6zM164.3 8.8l-.1.1zM328.8 11a5.5 5.5 0 0 0-1.3 1 5.9 5.9 0 0 0-1.8 2.9 4.9 4.9 0 0 0-.2 1.6 7.1 7.1 0 0 0 .1 2 3.7 3.7 0 0 0 .5 1l-.2-.3.2.3a5 5 0 0 0 1.4.7h-.1a7.3 7.3 0 0 0 1.8.2 5.2 5.2 0 0 0 1.6-.3 7 7 0 0 0 1.6-.5 13.7 13.7 0 0 0 3.1-4.2v.1a7.3 7.3 0 0 0 .3-1.7 6.1 6.1 0 0 0-.3-1.6.3.3 0 0 1 0-.2l-.4-1.2a5.6 5.6 0 0 0-1.3-.6c-.9-.1-4 0-5 .8zM78.1 12.7H78a7.5 7.5 0 0 1-1.9.3 6.2 6.2 0 0 0-3.4 1c-.3 0-1.3.6-.9.5h.1a17.7 17.7 0 0 0-2 1.1c0 .3-.3.7-1.1 1a1.4 1.4 0 0 0-.4.8v-.1a2.1 2.1 0 0 1-.5.8c-.9.8-2.9 5.7-3 6.2a12.4 12.4 0 0 0-.6 3.1v2.1c0 1 .3 5.6 1 7l.5 1-.3-.3.4.7 1.4 1a12 12 0 0 0 3 1.8h-.1l1.2.3a7.2 7.2 0 0 0 3.4.2l.6-.1c1.2-.4 3.9-1.1 4.5-1.8l-.3.4c0 .2.8-.5 1-.9h.1-.2a3.9 3.9 0 0 1 1.5-1.2 17.7 17.7 0 0 0 6-8.7 46 46 0 0 0-1-9 15.8 15.8 0 0 0-1.5-4.4 9 9 0 0 0-1-1.1 18.2 18.2 0 0 0-4.7-1.8 2.6 2.6 0 0 0-1.7.1zM49.8 58.2zM172 28.3l1.1.2 1.1.3c1.4.6 4 .1 3.5-1.9l-.1-.9v.3l-.5-1c0-.2 0-.3-.2-.5a2 2 0 0 1-.1-.6v.1l-.3-1-.2-.5a49.6 49.6 0 0 1-1.9-5.5c-.6.3-1.2 1-1.9 2.5a13.2 13.2 0 0 0-.7 2.3 26 26 0 0 0-.6 2.5l-.5 1.2a1.1 1.1 0 0 1 0 .7 5.2 5.2 0 0 0 .1 1.2l1.4.6z"/><path class="cls-2" d="M74.5 57.4a4.3 4.3 0 0 0-1.2-.4 3.8 3.8 0 0 1-.5 3h.1a7.9 7.9 0 0 1-1 1.6 15.8 15.8 0 0 1-6.1 5.1 21.6 21.6 0 0 1-6.7 1.8 20 20 0 0 1-5.8-.2 15 15 0 0 1-5.5-1.9v.1a20.8 20.8 0 0 1-3.4-2.3 22.8 22.8 0 0 0 6.4 5.3 15 15 0 0 0 5.5 1.8 20 20 0 0 0 5.8.2 21.6 21.6 0 0 0 6.7-1.8 15.8 15.8 0 0 0 6-5 7.9 7.9 0 0 0 1.1-1.8v.1a4.1 4.1 0 0 0-1.4-5.6zM15 24.7a11 11 0 0 0-1.6-2v.2a4.3 4.3 0 0 0-2.4-1 2.8 2.8 0 0 0-2.7 2.8V37.8C8 38.5 8 40.3 8 41a9.1 9.1 0 0 1 0 4.2c-.3 1.9-3 3-5 2.8a3.6 3.6 0 0 0 2 2.7c1.9.8 5.7-.3 6-2.5a9.1 9.1 0 0 0 0-4.2l.1-3.2v-3.3l.1-2.8v-7a2.8 2.8 0 0 1 2.7-2.8 3 3 0 0 1 1.3.3l-.4-.5zM11.3 8.3a65.4 65.4 0 0 0 4.8 6.5 12.9 12.9 0 0 1 1.5 1.5A7.2 7.2 0 0 0 19 18a4.2 4.2 0 0 0 1 .9s0 .2.2.3l.8.7a5 5 0 0 1-.3-.5 12.9 12.9 0 0 0-1.5-1.6v.1a65.4 65.4 0 0 1-4.8-6.5l-.5-.7a19.6 19.6 0 0 0-2-3l.2.1a5.3 5.3 0 0 0-2.5-2.2l1.3 2zM33.6 20.9a2.8 2.8 0 0 0-2 1.2 1.4 1.4 0 0 1-.5.7L29 25.5l-1 .8h.3a11.3 11.3 0 0 1-1.8 2l-.7.6h.1c-1.4 1.8-6 1.1-7.3-.7v.1l-.7-.8a2 2 0 0 0 .1.2c.2.3-.3-.2 1 1.2a18.3 18.3 0 0 1 2.7 2.4c1.1 1.7 5.8 2.4 7.2.6l.6-.7a11.3 11.3 0 0 0 1.8-2l-.2.1.9-.8 2.3-2.7a1.4 1.4 0 0 0 .5-.7 4.4 4.4 0 0 1 1-1l-.1-.2c-.3-1.8-1-3-2-3zM43.8 5.8a19.1 19.1 0 0 0 .1 2.5v.6l.1 4.6v1.2a1.8 1.8 0 0 0-.2.7v10.5a99.3 99.3 0 0 1-.2 10.1 8.8 8.8 0 0 1 0 2.2v.5a5.7 5.7 0 0 1-.1 2v1.8a3.1 3.1 0 0 1 0 1.7c0 .9 0 1.6.2 2.9a27 27 0 0 0 1.2 4.6 14.7 14.7 0 0 0 2.2 3.9 16 16 0 0 0 2.8 2.7 15.5 15.5 0 0 1-2-3.6 27 27 0 0 1-1.2-4.6l-.2-2.9a3.1 3.1 0 0 0 0-1.6v-1.9a5.7 5.7 0 0 0 .1-2v-.5a8.8 8.8 0 0 0 0-2.2 99.3 99.3 0 0 0 .3-10.2V18.5a1.8 1.8 0 0 1 0-.7l.2-1v-.2l-.1-4.6v-.6a19.1 19.1 0 0 1-.1-2.5A3.5 3.5 0 0 0 45 5.5a6.6 6.6 0 0 0-1.2-.3 1.7 1.7 0 0 1 0 .6zM92.8 12.1zM94.5 14zM92.7 11.8v.3c.2 0 0-.1 0-.3z"/><path class="cls-2" d="M92.8 12.1l-.1-.3v.3zM62.8 34.6l-.3-.4.5.7.2.5.4.4a11.4 11.4 0 0 0 2.3 2l-.4-.6.3.3c-.2-.2-.4-.9-.6-1-.6-1.4-1-6-.9-7v-2a12.4 12.4 0 0 1 .6-3.2c.1-.5 2.1-5.4 3-6.2a2.1 2.1 0 0 0 .5-.8v.1a1.4 1.4 0 0 1 .4-.8c.8-.3 1-.7 1-1a17.7 17.7 0 0 1 2.2-1.2h-.1l.9-.4a6.2 6.2 0 0 1 3.3-1 7.5 7.5 0 0 0 1.9-.3 2.6 2.6 0 0 1 1.7 0 18.2 18.2 0 0 1 4.8 1.7l-2.7-2.9a18 18 0 0 0-5-1.9 2.6 2.6 0 0 0-1.7.1H75a7.5 7.5 0 0 1-1.9.3 6.2 6.2 0 0 0-3.4 1c-.3 0-1.3.6-.9.5h.1a17.7 17.7 0 0 0-2 1.1c0 .3-.3.7-1.1 1a1.4 1.4 0 0 0-.4.8v-.1a2.1 2.1 0 0 1-.5.8c-.9.8-2.9 5.7-3 6.2a12.4 12.4 0 0 0-.6 3.1v2.1c0 1 .3 5.6 1 7l.5 1z"/><path class="cls-2" d="M98.3 23.8a1.8 1.8 0 0 0-.2-1v-.3a15.9 15.9 0 0 0-.9-2.9.8.8 0 0 0 0-.4.9.9 0 0 0-.4-1 .7.7 0 0 1 0 .3v-.2l-.1-.5-.1-.3a13.1 13.1 0 0 0-1-2 2.8 2.8 0 0 0-1.2-1.6h.1a3.8 3.8 0 0 0-1-1l-.3-.4-.4-.4v.3-.3l-.1-.3-.8-.7-.8-1-.7-.6A17 17 0 0 0 88.8 8v.1l.9.7c0 .2.2.3 0 .3l.5.4.4.3a3.8 3.8 0 0 1 .8 1.1 2.8 2.8 0 0 1 1.3 1.6 13.1 13.1 0 0 1 .9 2v.3l.2.5a.9.9 0 0 1 .3.9.8.8 0 0 1 .1.4 15.9 15.9 0 0 1 .8 3l.1.3a1.8 1.8 0 0 1 .2.9l.2.5a24.6 24.6 0 0 1 .4 2.6A25.8 25.8 0 0 1 93 36.4c0 .2 0 .4-.5.7l-.2.4a6.7 6.7 0 0 1-2.3 3.4 11.5 11.5 0 0 0-2.9 3 4.3 4.3 0 0 0-1.1.7v-.2l-.7.6-.7.5a8.1 8.1 0 0 1-3.4 1.7l-1.9.7h.1a3.5 3.5 0 0 1-1.3.4 5.2 5.2 0 0 1-1.3.1l-.4.1h-.7a3 3 0 0 1-.9.1H68.7a13.6 13.6 0 0 1-7.3-4.2l-.3-.2A11 11 0 0 1 60 43l-.2-.2 1.3 1.4 1 .9 1 .9a11 11 0 0 0 1 1l.4.3a13.6 13.6 0 0 0 7.2 4.1h.5l3.1.1H78a3 3 0 0 0 .9 0h.6c.3 0 .3-.2.5-.2a5.2 5.2 0 0 0 1.2 0 3.5 3.5 0 0 0 1.4-.5h-.1l1.8-.7a8.1 8.1 0 0 0 3.4-1.7l.8-.5.7-.6v.2a4.3 4.3 0 0 1 1-.7 11.5 11.5 0 0 1 3-3 6.7 6.7 0 0 0 2.3-3.4l.1-.4c.5-.3.6-.5.6-.7.8-1.4 2.4-5 2.7-12.5a24.6 24.6 0 0 0-.4-2.6z"/><path class="cls-2" d="M96.8 18.3v.2a.7.7 0 0 0 0-.2zM92.9 12.4l-.1-.3v.3zM128.2 29.3l-2-1.5h.2a19.9 19.9 0 0 1-2-1.8v.1L121 23a6 6 0 0 0-3.5-1.3c-1.7 0-3.4 1-3.6 3.8a20.4 20.4 0 0 0 0 2.4v3.5a31.8 31.8 0 0 1 0 5.1v3a.7.7 0 0 1 0 .9V42a20 20 0 0 0 0 2.2c0 .6-.3 3-1.3 3.4a7.3 7.3 0 0 1-3.7.6 3 3 0 0 0 1 2.2c.6.7 3 1.3 5.7.2 1-.5 1.3-2.8 1.3-3.4a20 20 0 0 1 0-2.2v-1.6a.7.7 0 0 0 0-.8v-3.1a31.8 31.8 0 0 0 0-5.1v-3.5a20.4 20.4 0 0 1 0-2.4c.2-2.8 2-3.8 3.7-3.8A6 6 0 0 1 124 26l3.5 3.2V29a19.9 19.9 0 0 0 2 1.7h-.2l1 .8-2-2.3zM125 15.8h-.1.1zM121 11.3a6.3 6.3 0 0 0 1 1.1l.6.7c.2.4 1.8 2 2.3 2.6v.1l.7.6v-.1l.6.5a5.4 5.4 0 0 1-.6-.7l-.6-.6a6.3 6.3 0 0 1-1-1.2l-2.2-2.6L118 7V7l-1.6-1.7a1.3 1.3 0 0 1-.4-.2l2.8 3.7zM147.7 9.3l-.1-1.3a8.3 8.3 0 0 0 0-1.6 3.6 3.6 0 0 0-3-2.4V6.7a27 27 0 0 1 0 3.8 23 23 0 0 0-.1 2.5V15a.5.5 0 0 0-.1.4 48.8 48.8 0 0 0-.2 5v10.1a12.3 12.3 0 0 1 .1 4.5 11.1 11.1 0 0 0-.2 1.6v1.6a19 19 0 0 0 .1 2.3l.2 3.6a16.1 16.1 0 0 1-.4 2c-.8 2-3.2 2.4-4.9 2.2a3 3 0 0 0 1.5 2.6c.8.6 5.3 1 6.5-1.7a16.1 16.1 0 0 0 .3-2c0-1.4 0-2.6-.2-3.6a19 19 0 0 1 0-2.4v-1.6a11.1 11.1 0 0 1 .1-1.6 12.3 12.3 0 0 0 0-4.4v-2.8-7.3a48.8 48.8 0 0 1 .1-5 .5.5 0 0 1 .1-.4V16a23 23 0 0 1 .1-2.4 27 27 0 0 0 0-3.8zM194 44.7l-.6-1.5a22.4 22.4 0 0 1-1.2-3.1l-4-12.7a33 33 0 0 0-1.3-3.4l-.4-1-.1-.2c-1.7-4.9-3-7.9-3.5-9.1a3.8 3.8 0 0 1-.2-.8l-.5-1-.2-.2a8 8 0 0 0-.9-1.7h.1l-2-3.6a3.9 3.9 0 0 1-.5-1.2c-.5-.7-.7-1.2-1.6-1.7a11.2 11.2 0 0 0-1.1-.4l.1.3 2.1 3.6a8 8 0 0 1 .8 1.6l.2.2.5 1.1a3.8 3.8 0 0 0 .2.7c.6 1.3 1.9 4.3 3.5 9.2v.3l.5 1V21a33 33 0 0 1 1.3 3.4 447 447 0 0 1 4 12.7 22.4 22.4 0 0 0 1.2 3.1l.7 1.5a5.3 5.3 0 0 1 0 4.4V46c-.3.8-2 1.6-3.7 1.7a4 4 0 0 1-1.2-.1 4.1 4.1 0 0 0 .6 1.5 4.5 4.5 0 0 0 3.6 1.6c1.8 0 3.4-.9 3.7-1.7a5.3 5.3 0 0 0 0-4.3zM178.5 36.8l-3.3-.9h.1a21.4 21.4 0 0 1-2.5-.7 11.1 11.1 0 0 0-3-.8 6 6 0 0 0-7.3 3.4 9.8 9.8 0 0 1-1 3.3 30.8 30.8 0 0 1-1.8 5.3 3.8 3.8 0 0 1-3 1.3 7.4 7.4 0 0 1-1 0 3 3 0 0 0 .2 1.3l.5.9a7.3 7.3 0 0 0 3.3.8 3.8 3.8 0 0 0 3-1.3 30.8 30.8 0 0 0 1.8-5.3 9.8 9.8 0 0 0 1-3.3 6 6 0 0 1 7.4-3.4 11.1 11.1 0 0 1 2.9.8 21.4 21.4 0 0 0 2.5.7l3.2 1a7.5 7.5 0 0 0-3-3zM170.7 25.8l.5-1.2a26 26 0 0 1 .6-2.5 13.2 13.2 0 0 1 .7-2.3c.7-1.5 1.3-2.2 1.9-2.5l-.3-.8c-.5-1.1-1.6-2.2-2.3-2.2s-1.5.6-2.3 2.5a13.2 13.2 0 0 0-.7 2.3 26 26 0 0 0-.6 2.5l-.5 1.2a1.1 1.1 0 0 1 0 .7 4.4 4.4 0 0 0 2.4 3.8l.7.4a5.2 5.2 0 0 1-.2-1.2 1.1 1.1 0 0 0 .1-.7zM181.5 39.8zM232.7 20.9a3 3 0 0 0-2 1.2 2 2 0 0 1-.4.7l-2.3 2.7-.9.8h.2a11.3 11.3 0 0 1-1.7 2l-.8.6h.1c-1.4 1.8-6 1.1-7.2-.7v.1a6.6 6.6 0 0 0-1-1l.4.3c.1.3-.4-.1 1 1.2a14.4 14.4 0 0 1 2.6 2.5v-.1c1.2 1.8 5.8 2.4 7.2.7l.7-.7a11.3 11.3 0 0 0 1.7-2h-.2l.9-.7 2.4-2.8a2 2 0 0 0 .4-.7 4.5 4.5 0 0 1 1-.8v-.4c-.4-1.7-1.1-3-2.1-3zM246 11.3a19.1 19.1 0 0 1 0-2.5c0-.6-.6-3-2-3.4a6.7 6.7 0 0 0-1.1-.3 1.9 1.9 0 0 1 0 .7 19.1 19.1 0 0 0 .1 2.5V14.7a1.8 1.8 0 0 0 0 .6V26a99.3 99.3 0 0 1-.3 10.1 8.8 8.8 0 0 1 0 2.2 17.6 17.6 0 0 1-.2 2.2v1.9a4.6 4.6 0 0 1 0 2 8.7 8.7 0 0 1-.5 1.6 4.8 4.8 0 0 1-4.5 2.1 2.9 2.9 0 0 0 1.7 2.6A4.8 4.8 0 0 0 245 49a8.7 8.7 0 0 0 .5-1.6 4.6 4.6 0 0 0 0-2v-1.9a17.6 17.6 0 0 0 .1-2.2 8.8 8.8 0 0 0 0-2.2A99.3 99.3 0 0 0 246 29V18.4a1.8 1.8 0 0 1 .1-.7v-1.2-4.6zM210.4 8.3c1 1.5 4.2 6.1 4.9 6.5l1.4 1.5A11.5 11.5 0 0 0 218 18a4.2 4.2 0 0 0 .9.9l.3.3 1 .8-.5-.5-1.4-1.7v.1c-.7-.4-3.8-5-5-6.5l-.4-.7a19.6 19.6 0 0 0-2-3l.2.2a5.4 5.4 0 0 0-2.5-2.3 22.8 22.8 0 0 1 1.3 2zM214 24.7a11 11 0 0 0-1.5-2v.2a4.3 4.3 0 0 0-2.4-1 2.8 2.8 0 0 0-2.7 2.8v7l-.1 2.8v3.3l-.1 3.2a9.3 9.3 0 0 1 0 4.2c-.3 1.9-3 3-5 2.8a3.8 3.8 0 0 0 1.9 2.7c1.9.8 5.7-.2 6-2.5a9.3 9.3 0 0 0 0-4.2l.1-3.2v-3.3l.1-2.8v-7a2.8 2.8 0 0 1 2.7-2.9 3 3 0 0 1 1.3.4l-.3-.5zM263.3 5.2h.1a3.4 3.4 0 0 0-2-1 2.5 2.5 0 0 1 0 .5 11 11 0 0 1 0 2.5v7.2c-.2.3-.4 4.7-.4 5.7l.1 2.8v1.6a2.1 2.1 0 0 0 .1.6c.1 2.5-.3 12.5-.4 13.4a24.7 24.7 0 0 0 .1 4.2 6.3 6.3 0 0 1-.6 3.7A4 4 0 0 1 257 48a6.2 6.2 0 0 1-1.1-.1 4.1 4.1 0 0 0 .6 2 6.3 6.3 0 0 0 3.6 1.1 4 4 0 0 0 3.2-1.5 6.3 6.3 0 0 0 .6-3.8 24.7 24.7 0 0 1-.1-4.1c0-1 .5-11 .4-13.4a2.1 2.1 0 0 1 0-.7V26c-.2-1-.2-1.8-.2-2.7l.3-5.8v-6.1l.1-1.1a11 11 0 0 0 0-2.4 4.1 4.1 0 0 0-1-2.6zM297.4 9.3a1.4 1.4 0 0 1-.7-.1 1.7 1.7 0 0 0 .2 1.4 3 3 0 0 0 2.2 1.4 3.7 3.7 0 0 1 .5 0 1.6 1.6 0 0 0 .7.3V12c0-.7-1.1-3-3-2.8zM310.9 7.5a3.6 3.6 0 0 0-1-2.5 6 6 0 0 0-2.1-1.3 3.4 3.4 0 0 1 0 .8v2l.2 4.3v6.3l-.1 1v26.1a3.6 3.6 0 0 1-1 2.4 3.5 3.5 0 0 1-2.5 1.1h-.7a2.4 2.4 0 0 1-.4 0 3.2 3.2 0 0 0 1 1.8 3.5 3.5 0 0 0 2.4 1.2h.7a3.5 3.5 0 0 0 2.5-1 3.6 3.6 0 0 0 1.1-2.5l-.1-1v-6.4l.1-1-.1-1v-4.2l.1-3.1-.1-1v-2.2l.1-1v-2l-.1-1.2v-2l.1-1v-6.3l-.1-4.3zM346.8 35.2l-.3-1v.3l-.2-1.2-1-2.3v-.1a6.7 6.7 0 0 1-1.6-4.4 12.3 12.3 0 0 1 1.4-5l.7-2a15 15 0 0 0 0-4.9 12 12 0 0 0-2-5.8L342 7.1a11 11 0 0 0-1.6-1.5l.3.2a12 12 0 0 1 2 5.8 15 15 0 0 1 0 5l-.7 1.8a12.3 12.3 0 0 0-1.4 5.1 6.7 6.7 0 0 0 1.5 4.4h.1l1 2.4.2 1.2v-.3l.3 1a15 15 0 0 1 .2 2.5 17.6 17.6 0 0 1-.6 4.4l-1 2.3-.3.9-.7 1.1-1.6 1.8a21.6 21.6 0 0 1-3.6 2.5l-1.1.5-1.1.6a9.7 9.7 0 0 1-2 .2h-.6l-.4.2h-3.5l-.7-.1a15.9 15.9 0 0 1-7.1-2.8v.1a14.7 14.7 0 0 0 10.1 5.7h.7l1.8.1h1.7l.4-.1.7-.1a9.7 9.7 0 0 0 1.9-.2l1.2-.6h-.1l1-.5a21.6 21.6 0 0 0 3.7-2.5l1.6-1.8.7-1.1.3-1 1-2.2a17.6 17.6 0 0 0 .6-4.4 15 15 0 0 0-.2-2.5z"/><path class="cls-2" d="M325.6 41.7a10.6 10.6 0 0 1-1-2v.2l-.1-.6a3.8 3.8 0 0 1-.2-1.5 7.6 7.6 0 0 1 .3-2 6.8 6.8 0 0 1 .7-1.9l-.1.1a9.3 9.3 0 0 1 1.3-1.4l1.3-1.1c1.8-.9 5.8-1.4 6.7-1.1a6.9 6.9 0 0 1 1.4.5h.1a7.5 7.5 0 0 0-1.3-1.5A3.4 3.4 0 0 0 333 28a6.9 6.9 0 0 0-1.4-.6c-.9-.2-4.9.3-6.7 1.1l-1.3 1.1a9.3 9.3 0 0 0-1.3 1.4 6.8 6.8 0 0 0-.6 1.8 7.6 7.6 0 0 0-.3 2 3.8 3.8 0 0 0 .2 1.5l.2.6v-.2c.2 1 1.7 3.7 3 4.6h-.1a3.6 3.6 0 0 0 1 .4zM323.1 16.4l-.2-.1.5.6a9.7 9.7 0 0 0 2.7 2.6l-.2-.2.2.1a3.7 3.7 0 0 1-.5-1 7.1 7.1 0 0 1-.1-1.9 4.9 4.9 0 0 1 .3-1.6 5.9 5.9 0 0 1 1.7-2.8 5.5 5.5 0 0 1 1.3-1.1c1-.7 4.1-1 5-.8a5.6 5.6 0 0 1 1.4.6 1 1 0 0 0-.3-.4 7.7 7.7 0 0 0-2.6-2.5 5.5 5.5 0 0 0-1.5-.7c-.9-.1-4 0-5 .8a5.5 5.5 0 0 0-1.3 1 5.9 5.9 0 0 0-1.8 2.9 4.9 4.9 0 0 0-.2 1.6 7.1 7.1 0 0 0 .1 2 3.7 3.7 0 0 0 .5 1z"/><path d="M73.3 57a4.1 4.1 0 0 0-1.8-2.6A3.9 3.9 0 0 0 66 56v-.1c-.2.4-.9 1.2-.5.8l-.5.6-1.3 1.5-2 1.2c-1 .3-1.7.3-2.7.5a17 17 0 0 1-4.2.1 8.3 8.3 0 0 1-2.3-.5 16.3 16.3 0 0 1-2.8-1.7 16 16 0 0 1-2.7-2.6 14.7 14.7 0 0 1-2.1-4 27 27 0 0 1-1.3-4.6l-.2-2.9a3.1 3.1 0 0 0 0-1.6v-1.9a5.7 5.7 0 0 0 .1-2v-.5a8.8 8.8 0 0 0 0-2.2 99.3 99.3 0 0 0 .3-10.2V15.4a1.8 1.8 0 0 1 0-.6l.2-1v-.3L44 9v-.6a19.1 19.1 0 0 1-.1-2.5 1.7 1.7 0 0 0 0-.6A3.4 3.4 0 0 0 42 2.5c-3-1.1-5.7.3-6.6 1.9a5.2 5.2 0 0 0-.5.9l-.5.8A7 7 0 0 1 33 8a74 74 0 0 1-6.8 9.3l-1 1.2-.2.2-1.3 1.5.2-.2a2.2 2.2 0 0 1-3-.1 16 16 0 0 1-1.1-1 4.2 4.2 0 0 1-1-1 7.2 7.2 0 0 1-1.2-1.5 12.9 12.9 0 0 0-1.5-1.6v.1a65.4 65.4 0 0 1-4.8-6.5l-.5-.7-1.3-2.1a8 8 0 0 0-.6-.8H9a4.8 4.8 0 0 0-7.4-1.4A5.2 5.2 0 0 0 .4 6.8V12.4a5.3 5.3 0 0 0-.2 2v2.9L.3 20v2a4 4 0 0 1 0 1v1.8a15.5 15.5 0 0 0 0 5.4V42.4l-.1 2.3a3.5 3.5 0 0 0 1.9 3 3.5 3.5 0 0 0 1 .3c2 .2 4.7-1 5-2.8a9.1 9.1 0 0 0 0-4.2c0-.7 0-2.5.2-3.1v-3.4-9.8a2.8 2.8 0 0 1 2.7-2.8 4.3 4.3 0 0 1 2.4 1v-.1a11 11 0 0 1 1.5 1.9c.1.2-.2 0 .4.5l.6.7a21.1 21.1 0 0 1 1.8 1.6l.8.8c1.2 1.7 5.8 2.4 7.3.6h-.1l.7-.7a11.3 11.3 0 0 0 1.7-2l-.2.1 1-.8 2.2-2.7a1.4 1.4 0 0 0 .6-.7 2.8 2.8 0 0 1 1.9-1.2c1 0 1.7 1.3 2 3V25.8a5 5 0 0 0 .2 1.7l-.1 1a10.2 10.2 0 0 0-.1 2.3v.4a7.8 7.8 0 0 1-.2 2 31.2 31.2 0 0 0-.1 4V42a14.6 14.6 0 0 0 0 2.8v.2a25.3 25.3 0 0 0 1 5.8l-.1-.1a20.9 20.9 0 0 0 2.7 7 24.6 24.6 0 0 0 5.5 6.5 20.8 20.8 0 0 0 3.4 2.4v-.1a15 15 0 0 0 5.4 1.9 20 20 0 0 0 5.8.2 21.6 21.6 0 0 0 6.7-1.8 15.8 15.8 0 0 0 6.1-5.1 7.9 7.9 0 0 0 1.1-1.7 3.8 3.8 0 0 0 .4-2.9z"/><path d="M95.3 20.8a1.8 1.8 0 0 0-.2-1v-.3a15.9 15.9 0 0 0-.9-2.9.8.8 0 0 0 0-.4.9.9 0 0 0-.4-1l-.1-.4-.1-.3a13.1 13.1 0 0 0-1-2 2.8 2.8 0 0 0-1.2-1.6 3.8 3.8 0 0 0-.8-1l-.4-.4-.4-.4-.1-.3-.8-.7-.1-.1-.6-.8-.8-.7a12.7 12.7 0 0 0-2.8-2.3 1 1 0 0 0-.3 0l-.5-.4v.1l-.6-.5-1.3-.5a11 11 0 0 0-3.3-1 16 16 0 0 0-5 0l-3.8.7-1.2.4h.4l-.8.1a19.1 19.1 0 0 1-2.5 1.2l-1 .5-.7.6v-.1s-.2 0-.4.3a6.8 6.8 0 0 0-3.3 2.8l.2-.1-.8.9-1.8 2-.5.8a7.6 7.6 0 0 0-.8 1.8l-.3.4c-1 2.3-2.9 5.9-2.7 8.9a2 2 0 0 1 0 .3v4.2c0 1.3.3 4.2.4 5v.5a11.4 11.4 0 0 0 1 2.6c0 .2 0 .4.2.5a4.4 4.4 0 0 1 .6 1.8 7 7 0 0 0 2.3 3.3l.9.9.8.7.2.2a11 11 0 0 0 1.1 1l.3.3a13.6 13.6 0 0 0 7.3 4.1h.4l3.2.1h2.6a3 3 0 0 0 1 0h.6c.3 0 .2-.2.4-.2a5.2 5.2 0 0 0 1.3 0 3.5 3.5 0 0 0 1.3-.5l1.8-.8a8.1 8.1 0 0 0 3.4-1.6l.7-.5.7-.6v.2a4.3 4.3 0 0 1 1.1-.7 11.5 11.5 0 0 1 3-3 6.7 6.7 0 0 0 2.2-3.4l.2-.4a26.5 26.5 0 0 0 3.3-13.2 24.6 24.6 0 0 0-.4-2.6zm-31.7 15l-.4-.5-.2-.4-.5-.7.3.4c-.2-.3-.3-1-.5-1.1-.7-1.4-1-6-1-7v-2a12.4 12.4 0 0 1 .6-3.2c.2-.5 2.2-5.4 3-6.2a2.1 2.1 0 0 0 .5-.8v.1a1.4 1.4 0 0 1 .4-.8c.8-.3 1.1-.7 1.1-1a17.7 17.7 0 0 1 2-1.2l.9-.4a6.2 6.2 0 0 1 3.4-1 7.5 7.5 0 0 0 1.8-.3 2.6 2.6 0 0 1 1.7 0 18 18 0 0 1 5 1.8l2.8 2.9a9 9 0 0 1 1 1.1A15.8 15.8 0 0 1 87 20a46 46 0 0 1 1 9 17.7 17.7 0 0 1-6 8.7 3.9 3.9 0 0 0-1.5 1.1h.2-.1l-1 1 .3-.4c-.7.6-3.3 1.3-4.6 1.7h-.5a7.2 7.2 0 0 1-3.5-.1l-1.1-.3h.2a12 12 0 0 1-3.1-1.8l-1.4-1a11.4 11.4 0 0 1-2.3-2zM125 15.7v.1zM144.7 6.3l-.1-1.3V4a3.3 3.3 0 0 0 0-.6 3.7 3.7 0 0 0-3.7-2.5 4 4 0 0 0-4 2.5 16.6 16.6 0 0 0-.4 4.3v1.8l.1 1.8a2.4 2.4 0 0 1 0 .7 5.4 5.4 0 0 0-.2 1.7 18.5 18.5 0 0 1-.2 3.8v.8c-.1 1.1-1.1 4-3 4-.9 0-1.7-.5-2.8-1.6l.2.1a56.5 56.5 0 0 0-4.4-4 11 11 0 0 0-.7-.5l.1.1-.6-.6h-.1l-2.3-2.7-.6-.6a6.3 6.3 0 0 1-1-1.2l-2.2-2.6-2.9-3.6-.9-1.2V4l-1.6-1.7a1.3 1.3 0 0 1-.4-.2 2.7 2.7 0 0 0-1-.3 3.2 3.2 0 0 1-.7 0H110a3.8 3.8 0 0 0-3.2 2h.1a3.5 3.5 0 0 0-.5 2.1 3.7 3.7 0 0 1-.1 1v4.4a29 29 0 0 1 0 4c-.5 8.7-.4 10.3-.3 11.4v3a12.8 12.8 0 0 0 .1 1.8l.1 1.3-.2 3.6c0 2.8 0 4.7-.3 7.6 0 1-.1 2.2 1 3.3a3.3 3.3 0 0 0 2 .8 7.3 7.3 0 0 0 3.7-.6c1-.4 1.4-2.7 1.4-3.3a20 20 0 0 1 0-2.2v-1.6a.7.7 0 0 0 0-.9v-3a31.8 31.8 0 0 0 0-5.1v-3.5a20.4 20.4 0 0 1 0-2.4c.2-2.8 1.9-3.8 3.6-3.8A6 6 0 0 1 121 23l3.5 3.2V26a19.9 19.9 0 0 0 2 1.7h-.2l2 1.6v-.1l2 2.3c2.2 2.8 5.7 7.7 6 12.4v.7a3.1 3.1 0 0 0 3 3.8c1.6.1 4-.2 4.8-2.2a16.1 16.1 0 0 0 .4-2c0-1.3 0-2.5-.2-3.6a19 19 0 0 1 0-2.4v-1.5a11.1 11.1 0 0 1 .1-1.6 12.3 12.3 0 0 0 0-4.4v-2.8-7.3a48.8 48.8 0 0 1 .1-5 .5.5 0 0 1 0-.4V13a23 23 0 0 1 .2-2.4 27 27 0 0 0 0-3.8zM191 41.7l-.6-1.5a22.4 22.4 0 0 1-1.2-3.1l-4-12.7a33 33 0 0 0-1.3-3.4l-.4-1-.1-.2c-1.7-4.9-3-7.9-3.5-9.1a3.8 3.8 0 0 1-.2-.8l-.5-1-.2-.3a8 8 0 0 0-.9-1.6l-2-3.6-.1-.3a4 4 0 0 1-.4-.9c-.4-.7-.6-1.3-1.5-1.7-2-.8-2-.4-2.7-.4h-.6c-3.2 0-4.7 3.7-5.5 5.7l-.3.7-.5 1.4v-.2a4.6 4.6 0 0 1-.4 1.1V9h.1l-.6 1.3-2.4 7-.6 2.1a1.9 1.9 0 0 0-.3.9 40.7 40.7 0 0 0-1.4 3.6 1.5 1.5 0 0 0-.2.8L154.9 37a17.3 17.3 0 0 1-1.2 3.8c0 .3 0 .4-.2.6s-1.5 2.9-.6 4.7l.5 1a8.3 8.3 0 0 0 2.2.6 7.4 7.4 0 0 0 1.1.1 3.8 3.8 0 0 0 3-1.3 30.8 30.8 0 0 0 1.7-5.3 9.8 9.8 0 0 0 1.1-3.3 6 6 0 0 1 7.4-3.4 11.1 11.1 0 0 1 2.9.8 21.4 21.4 0 0 0 2.5.7l3.3 1h-.1a7.5 7.5 0 0 1 3 3 6.4 6.4 0 0 1 .5 1.3V41a15.5 15.5 0 0 0 .6 1.7l.2.3a5 5 0 0 0 .1.6.4.4 0 0 0 .1.2 5.9 5.9 0 0 0 .7 2.3 4.3 4.3 0 0 0 2.5 1.5 4 4 0 0 0 1.1.1c1.9 0 3.5-.9 3.8-1.7a5.3 5.3 0 0 0 0-4.4zm-21-14.4a4.4 4.4 0 0 1-2.4-3.8 1.1 1.1 0 0 0 .1-.7l.5-1.2a26 26 0 0 1 .6-2.5 13.2 13.2 0 0 1 .7-2.3c.9-1.9 1.7-2.5 2.3-2.5s1.8 1 2.4 2.2l.2.8a49.6 49.6 0 0 0 2 5.5l.1.5.3 1a2 2 0 0 0 0 .5c.4.2.4.3.4.4v.1l.4 1V26l.1 1c.6 2-2 2.4-3.4 1.8l-1.1-.4-1.1-.1h.2l-1.4-.7zM243 8.3a19.1 19.1 0 0 1 0-2.5 1.9 1.9 0 0 0 0-.7 3.4 3.4 0 0 0-2-2.7 5 5 0 0 0-6.5 2l-.6.9-.4.8a18.2 18.2 0 0 1-1.3 1.8 80.8 80.8 0 0 1-7 9.3l-1 1.2-.2.2a18.8 18.8 0 0 0-1.2 1.5l.1-.2a2.2 2.2 0 0 1-2.8 0l-1-.8-.2-.3a4.2 4.2 0 0 1-1-.9 11.5 11.5 0 0 1-1.2-1.5l-1.5-1.7v.1c-.6-.4-3.8-5-4.9-6.5l-.4-.7a22.8 22.8 0 0 0-1.4-2.1 6.8 6.8 0 0 0-.6-.8h.2c-2-3.1-5.5-3.2-7.5-1.4a5.2 5.2 0 0 0-1.1 3.5v.4l-.1 5.2a5.3 5.3 0 0 0-.2 2v2.9l.2 2.7v2a4 4 0 0 1-.1 1v1.8a15.8 15.8 0 0 0 0 5.4V42.4l-.1 2.3a3.8 3.8 0 0 0 1.9 3 3.5 3.5 0 0 0 1.1.3c2 .1 4.7-1 5-2.8a9.3 9.3 0 0 0 0-4.2l.1-3.1v-3.4l.1-2.8v-7a2.8 2.8 0 0 1 2.7-2.8 4.3 4.3 0 0 1 2.4 1v-.1a11 11 0 0 1 1.5 1.9l.4.5.6.6 1.8 1.5a6.6 6.6 0 0 1 .8 1c1.2 1.7 5.8 2.4 7.3.7h-.1l.7-.8a11.3 11.3 0 0 0 1.7-2l-.1.1.9-.8 2.3-2.7a2 2 0 0 0 .5-.7 3 3 0 0 1 1.9-1.2c1 0 1.7 1.3 2 3V25.8a5 5 0 0 0 .3 1.7l-.1.1-.1.8a10.2 10.2 0 0 0-.1 2.4v.4a7.8 7.8 0 0 1-.2 2 31.2 31.2 0 0 0 0 4.1v6.3c0 1.4 0 3.3 1.7 4a4 4 0 0 0 1.3.4 4.8 4.8 0 0 0 4.5-2.1 8.7 8.7 0 0 0 .5-1.6 4.6 4.6 0 0 0 0-2v-1.9a17.6 17.6 0 0 0 .1-2.2 8.8 8.8 0 0 0 0-2.2A99.3 99.3 0 0 0 243 26V15.4a1.8 1.8 0 0 1 .1-.7v-1.3V9zM261.3 4.2a4 4 0 0 0-1-2h.1c-1.5-1.7-5.3-1-5.9-.3h.1c-.6.6-1.2.9-1.2 3a19.7 19.7 0 0 0 0 2.2 5.8 5.8 0 0 1-.1 1.3v-.1l-.2 8.2a10.4 10.4 0 0 1-.1 4.3 21.1 21.1 0 0 1 .3 4v2l-.1 2.1v5.3a3.7 3.7 0 0 1-.2 2v1.4a7.8 7.8 0 0 0 .2 1.6 10 10 0 0 1-.2 2v.4a4.7 4.7 0 0 1-.1 1.6 5.5 5.5 0 0 0 .6 3.7 6 6 0 0 0 2.4 1 6.2 6.2 0 0 0 1.2.1 4 4 0 0 0 3.2-1.5 6.3 6.3 0 0 0 .7-3.8 24.7 24.7 0 0 1-.2-4.1c0-1 .5-11 .4-13.4a2.1 2.1 0 0 1 0-.6v-1.7l-.1-2.7.2-5.8V8.3l.1-1.1a11 11 0 0 0 0-2.5 2.5 2.5 0 0 0 0-.5zM307.9 4.5a3.4 3.4 0 0 0-.1-.8 3.5 3.5 0 0 0-1-1.7 4.6 4.6 0 0 0-2.4-1.3 22.7 22.7 0 0 0-2.7.1 20.5 20.5 0 0 1-2.3.1 6.2 6.2 0 0 0-2.7.9 6.2 6.2 0 0 0-2 2l-.3.7-.3.6.1-.1a2.4 2.4 0 0 0-.3 2.5 3 3 0 0 0 2.2 1.5 3.7 3.7 0 0 1 .5 0l.1.2a1.4 1.4 0 0 0 .7 0c1.8 0 2.9 2.2 2.9 2.9v6.4l-.1 1.1v1a6.1 6.1 0 0 0 0 1.4V30v14.1a3.2 3.2 0 0 0 1.2 2.3 3.8 3.8 0 0 0 2 1.2 2.4 2.4 0 0 0 .3 0h.8a3.5 3.5 0 0 0 2.4-1 3.6 3.6 0 0 0 1.1-2.5l-.1-1v-6.4l.1-1-.1-1v-4.2l.1-3.1-.1-1v-2.2l.1-1v-2l-.1-1.2v-2l.1-1v-6.3l-.1-4.3zM343.8 32.2l-.3-1v.3l-.2-1.2-1-2.4a6.7 6.7 0 0 1-1.6-4.4 12.3 12.3 0 0 1 1.4-5l.7-2a15 15 0 0 0 0-4.9 12 12 0 0 0-2-5.8l-.3-.2-1.4-1.5a10.1 10.1 0 0 0-3.6-2.7h.1a12.2 12.2 0 0 0-4.3-1.3 14.5 14.5 0 0 0-2 0H327l-2.4.5a26.8 26.8 0 0 0-5.4 3.5l-.5.5a8.4 8.4 0 0 0-2.2 3v-.2a13.3 13.3 0 0 0-1.3 4.2 14.3 14.3 0 0 0 0 2.1 15.4 15.4 0 0 0 0 2.1 2.3 2.3 0 0 0 .3 1l.2.6a6.7 6.7 0 0 0 1 2.6 4 4 0 0 1 .9 2.4 13 13 0 0 1-2 5.5 11 11 0 0 0-1.2 2.7 7.2 7.2 0 0 0-.3 1.9 15.8 15.8 0 0 0-.1 2.2 12.8 12.8 0 0 0 .1 2.1 15.4 15.4 0 0 0 2.6 6.6 12.4 12.4 0 0 0 2.9 2.9 15.9 15.9 0 0 0 7.1 2.8h.8l1.7.1h1.7l.4-.1.7-.1a9.7 9.7 0 0 0 1.9-.2l1.2-.7h-.1l1-.4a21.6 21.6 0 0 0 3.7-2.5l1.6-1.8.7-1.1.3-1 1-2.2a17.6 17.6 0 0 0 .6-4.5 15 15 0 0 0-.2-2.4zm-21.2-16.8a7.1 7.1 0 0 1-.1-1.9 4.9 4.9 0 0 1 .2-1.6 5.9 5.9 0 0 1 1.8-2.8 5.5 5.5 0 0 1 1.3-1.1c1-.7 4.1-1 5-.8a5.5 5.5 0 0 1 1.5.7 7.7 7.7 0 0 1 2.6 2.5 1 1 0 0 1 .3.4l.2 1.2a.3.3 0 0 0 .1.2 6.1 6.1 0 0 1 .3 1.6 7.3 7.3 0 0 1-.4 1.7h.1a13.7 13.7 0 0 1-3 4.1 7 7 0 0 1-1.7.5 5.2 5.2 0 0 1-1.6.3 7.3 7.3 0 0 1-1.8-.3v.1a5 5 0 0 1-1.3-.7 9.7 9.7 0 0 1-2.7-2.6l-.5-.6.2.1a3.7 3.7 0 0 1-.5-1zm2 25.9c-1.2-.9-2.7-3.6-3-4.6v.2l-.1-.6a3.8 3.8 0 0 1-.2-1.5 7.6 7.6 0 0 1 .3-2 6.8 6.8 0 0 1 .7-1.9l-.1.1a9.3 9.3 0 0 1 1.3-1.4l1.3-1.1c1.8-.8 5.8-1.4 6.7-1.1a6.9 6.9 0 0 1 1.4.5 3.4 3.4 0 0 1 1.8 1.5 7.5 7.5 0 0 1 1.3 1.5 8 8 0 0 1 .9 3.8 7.5 7.5 0 0 1-.3 1.9 10.6 10.6 0 0 1-1.4 3.3 9.6 9.6 0 0 1-2 1.6h.2a10.2 10.2 0 0 1-4.3 1 7.8 7.8 0 0 1-2-.3l-1.5-.5a3.6 3.6 0 0 1-1-.4z"/></g></g></svg>